<mxfile host="65bd71144e" scale="1" border="10">
    <diagram id="NXyXA566eGP3s6RVABhh" name="Page-1">
        <mxGraphModel dx="1161" dy="670" grid="1" gridSize="10" guides="1" tooltips="1" connect="1" arrows="1" fold="1" page="1" pageScale="1" pageWidth="540" pageHeight="430" background="#CCE5FF" math="0" shadow="1">
            <root>
                <mxCell id="0"/>
                <mxCell id="1" parent="0"/>
                <mxCell id="51" style="edgeStyle=none;html=1;exitX=0.5;exitY=0;exitDx=0;exitDy=0;entryX=0.5;entryY=1;entryDx=0;entryDy=0;strokeColor=#000000;shadow=1;" edge="1" parent="1" source="47" target="37">
                    <mxGeometry relative="1" as="geometry"/>
                </mxCell>
                <mxCell id="45" style="edgeStyle=none;html=1;exitX=0;exitY=0.25;exitDx=0;exitDy=0;entryX=1;entryY=0.5;entryDx=0;entryDy=0;dashed=1;strokeColor=#333333;shadow=1;" edge="1" parent="1" source="19" target="39">
                    <mxGeometry relative="1" as="geometry">
                        <Array as="points">
                            <mxPoint x="190" y="230"/>
                        </Array>
                    </mxGeometry>
                </mxCell>
                <mxCell id="44" style="edgeStyle=none;html=1;exitX=0;exitY=0.75;exitDx=0;exitDy=0;entryX=1;entryY=0.5;entryDx=0;entryDy=0;dashed=1;strokeColor=#333333;shadow=1;" edge="1" parent="1" source="20" target="38">
                    <mxGeometry relative="1" as="geometry">
                        <Array as="points">
                            <mxPoint x="180" y="198"/>
                            <mxPoint x="180" y="180"/>
                        </Array>
                    </mxGeometry>
                </mxCell>
                <mxCell id="5" value="End user&#39;s&lt;div&gt;web browser&lt;/div&gt;" style="ellipse;shape=cloud;whiteSpace=wrap;html=1;" parent="1" vertex="1">
                    <mxGeometry x="10" y="10" width="120" height="80" as="geometry"/>
                </mxCell>
                <mxCell id="6" value="Azure Kubernetes Service" style="swimlane;horizontal=0;whiteSpace=wrap;html=1;" parent="1" vertex="1">
                    <mxGeometry x="150" y="10" width="380" height="410" as="geometry"/>
                </mxCell>
                <mxCell id="4" value="Kubernetes Service: Client" style="swimlane;whiteSpace=wrap;html=1;" parent="6" vertex="1">
                    <mxGeometry x="40" y="20" width="160" height="120" as="geometry"/>
                </mxCell>
                <mxCell id="2" value="Load Balancer&lt;div&gt;Public IP&lt;/div&gt;" style="rounded=1;whiteSpace=wrap;html=1;" parent="4" vertex="1">
                    <mxGeometry x="20" y="40" width="120" height="60" as="geometry"/>
                </mxCell>
                <mxCell id="10" value="AMD Node Pool" style="swimlane;whiteSpace=wrap;html=1;" parent="6" vertex="1">
                    <mxGeometry x="230" y="20" width="130" height="140" as="geometry"/>
                </mxCell>
                <mxCell id="13" value="LLM Client Pod" style="rounded=1;whiteSpace=wrap;html=1;" parent="10" vertex="1">
                    <mxGeometry x="20" y="40" width="90" height="30" as="geometry"/>
                </mxCell>
                <mxCell id="14" value="LLM Client Pod" style="rounded=1;whiteSpace=wrap;html=1;" parent="10" vertex="1">
                    <mxGeometry x="20" y="90" width="90" height="30" as="geometry"/>
                </mxCell>
                <mxCell id="7" value="Kubernetes Service: Server" style="swimlane;whiteSpace=wrap;html=1;" parent="6" vertex="1">
                    <mxGeometry x="40" y="270" width="160" height="120" as="geometry"/>
                </mxCell>
                <mxCell id="8" value="Load Balancer&lt;div&gt;(Optional Public IP)&lt;/div&gt;" style="rounded=1;whiteSpace=wrap;html=1;" parent="7" vertex="1">
                    <mxGeometry x="20" y="40" width="120" height="60" as="geometry"/>
                </mxCell>
                <mxCell id="15" value="Arn Node Pool" style="swimlane;whiteSpace=wrap;html=1;" parent="6" vertex="1">
                    <mxGeometry x="230" y="200" width="130" height="190" as="geometry"/>
                </mxCell>
                <mxCell id="31" style="edgeStyle=none;html=1;exitX=1;exitY=0.5;exitDx=0;exitDy=0;strokeColor=#66FF66;shadow=1;" parent="15" source="16" edge="1">
                    <mxGeometry relative="1" as="geometry">
                        <mxPoint x="-110" y="170" as="targetPoint"/>
                        <Array as="points">
                            <mxPoint x="140" y="55"/>
                            <mxPoint x="140" y="200"/>
                            <mxPoint x="-110" y="200"/>
                        </Array>
                    </mxGeometry>
                </mxCell>
                <mxCell id="16" value="LLM Client Pod" style="rounded=1;whiteSpace=wrap;html=1;" parent="15" vertex="1">
                    <mxGeometry x="20" y="40" width="90" height="30" as="geometry"/>
                </mxCell>
                <mxCell id="17" value="LLM Server Pod" style="rounded=1;whiteSpace=wrap;html=1;" parent="15" vertex="1">
                    <mxGeometry x="20" y="90" width="90" height="30" as="geometry"/>
                </mxCell>
                <mxCell id="18" value="LLM Server Pod" style="rounded=1;whiteSpace=wrap;html=1;" parent="15" vertex="1">
                    <mxGeometry x="20" y="140" width="90" height="30" as="geometry"/>
                </mxCell>
                <mxCell id="35" style="edgeStyle=none;html=1;exitX=1;exitY=0.5;exitDx=0;exitDy=0;entryX=0;entryY=0.5;entryDx=0;entryDy=0;strokeColor=#B266FF;" parent="6" source="19" target="17" edge="1">
                    <mxGeometry relative="1" as="geometry">
                        <Array as="points">
                            <mxPoint x="210" y="230"/>
                            <mxPoint x="210" y="305"/>
                        </Array>
                    </mxGeometry>
                </mxCell>
                <mxCell id="36" style="edgeStyle=none;html=1;exitX=1;exitY=0.5;exitDx=0;exitDy=0;entryX=0;entryY=0.5;entryDx=0;entryDy=0;strokeColor=#B266FF;" parent="6" source="19" target="18" edge="1">
                    <mxGeometry relative="1" as="geometry">
                        <Array as="points">
                            <mxPoint x="210" y="230"/>
                            <mxPoint x="210" y="355"/>
                        </Array>
                    </mxGeometry>
                </mxCell>
                <mxCell id="19" value="LLM Server&lt;div&gt;Deployment&lt;/div&gt;" style="shape=step;perimeter=stepPerimeter;whiteSpace=wrap;html=1;fixedSize=1;" parent="6" vertex="1">
                    <mxGeometry x="60" y="210" width="120" height="40" as="geometry"/>
                </mxCell>
                <mxCell id="24" style="edgeStyle=none;html=1;exitX=1;exitY=0.5;exitDx=0;exitDy=0;entryX=0;entryY=0.5;entryDx=0;entryDy=0;strokeColor=#FFFF66;shadow=1;" parent="6" source="20" target="13" edge="1">
                    <mxGeometry relative="1" as="geometry">
                        <Array as="points">
                            <mxPoint x="210" y="180"/>
                            <mxPoint x="210" y="75"/>
                        </Array>
                    </mxGeometry>
                </mxCell>
                <mxCell id="26" style="edgeStyle=none;html=1;exitX=1;exitY=0.5;exitDx=0;exitDy=0;entryX=0;entryY=0.5;entryDx=0;entryDy=0;strokeColor=#FFFF66;shadow=1;" parent="6" source="20" target="14" edge="1">
                    <mxGeometry relative="1" as="geometry">
                        <Array as="points">
                            <mxPoint x="210" y="180"/>
                            <mxPoint x="210" y="125"/>
                        </Array>
                    </mxGeometry>
                </mxCell>
                <mxCell id="28" style="edgeStyle=none;html=1;exitX=1;exitY=0.5;exitDx=0;exitDy=0;entryX=0;entryY=0.5;entryDx=0;entryDy=0;strokeColor=#FFFF66;shadow=1;" parent="6" source="20" target="16" edge="1">
                    <mxGeometry relative="1" as="geometry">
                        <Array as="points">
                            <mxPoint x="220" y="180"/>
                            <mxPoint x="220" y="255"/>
                        </Array>
                    </mxGeometry>
                </mxCell>
                <mxCell id="20" value="LLM Client&lt;div&gt;Deployment&lt;/div&gt;" style="shape=step;perimeter=stepPerimeter;whiteSpace=wrap;html=1;fixedSize=1;" parent="6" vertex="1">
                    <mxGeometry x="60" y="160" width="120" height="40" as="geometry"/>
                </mxCell>
                <mxCell id="23" style="edgeStyle=none;html=1;exitX=0.5;exitY=1;exitDx=0;exitDy=0;entryX=0;entryY=0.5;entryDx=0;entryDy=0;strokeColor=#FFB366;shadow=1;" parent="6" source="2" target="20" edge="1">
                    <mxGeometry relative="1" as="geometry">
                        <Array as="points">
                            <mxPoint x="120" y="150"/>
                            <mxPoint x="50" y="150"/>
                            <mxPoint x="50" y="180"/>
                        </Array>
                    </mxGeometry>
                </mxCell>
                <mxCell id="29" style="edgeStyle=none;html=1;exitX=1;exitY=0.5;exitDx=0;exitDy=0;entryX=0.5;entryY=1;entryDx=0;entryDy=0;strokeColor=#66FF66;shadow=1;" parent="6" source="13" target="8" edge="1">
                    <mxGeometry relative="1" as="geometry">
                        <Array as="points">
                            <mxPoint x="370" y="75"/>
                            <mxPoint x="370" y="400"/>
                            <mxPoint x="120" y="400"/>
                        </Array>
                    </mxGeometry>
                </mxCell>
                <mxCell id="30" style="edgeStyle=none;html=1;exitX=1;exitY=0.5;exitDx=0;exitDy=0;entryX=0.5;entryY=1;entryDx=0;entryDy=0;strokeColor=#66FF66;shadow=1;" parent="6" source="14" target="8" edge="1">
                    <mxGeometry relative="1" as="geometry">
                        <Array as="points">
                            <mxPoint x="370" y="125"/>
                            <mxPoint x="370" y="400"/>
                            <mxPoint x="120" y="400"/>
                        </Array>
                    </mxGeometry>
                </mxCell>
                <mxCell id="34" style="edgeStyle=none;html=1;exitX=0;exitY=0.5;exitDx=0;exitDy=0;entryX=0;entryY=0.5;entryDx=0;entryDy=0;strokeColor=#66FFFF;shadow=1;" parent="6" source="8" target="19" edge="1">
                    <mxGeometry relative="1" as="geometry">
                        <Array as="points">
                            <mxPoint x="30" y="340"/>
                            <mxPoint x="30" y="230"/>
                        </Array>
                    </mxGeometry>
                </mxCell>
                <mxCell id="37" value="ACR" style="swimlane;whiteSpace=wrap;html=1;shadow=0;" vertex="1" parent="1">
                    <mxGeometry x="10" y="120" width="130" height="140" as="geometry"/>
                </mxCell>
                <mxCell id="38" value="Client Image" style="shape=document;whiteSpace=wrap;html=1;boundedLbl=1;" vertex="1" parent="37">
                    <mxGeometry x="20" y="40" width="90" height="40" as="geometry"/>
                </mxCell>
                <mxCell id="39" value="Server Image" style="shape=document;whiteSpace=wrap;html=1;boundedLbl=1;" vertex="1" parent="37">
                    <mxGeometry x="20" y="90" width="90" height="40" as="geometry"/>
                </mxCell>
                <mxCell id="21" style="edgeStyle=none;html=1;exitX=0.55;exitY=0.95;exitDx=0;exitDy=0;exitPerimeter=0;entryX=0;entryY=0.5;entryDx=0;entryDy=0;startArrow=blockThin;startFill=1;strokeColor=#FF6666;shadow=1;" parent="1" source="5" target="2" edge="1">
                    <mxGeometry relative="1" as="geometry">
                        <Array as="points">
                            <mxPoint x="76" y="100"/>
                        </Array>
                    </mxGeometry>
                </mxCell>
                <mxCell id="46" value="Virtual Machine" style="swimlane;whiteSpace=wrap;html=1;" vertex="1" parent="1">
                    <mxGeometry x="10" y="280" width="130" height="100" as="geometry"/>
                </mxCell>
                <mxCell id="47" value="Docker Build" style="shape=trapezoid;perimeter=trapezoidPerimeter;whiteSpace=wrap;html=1;fixedSize=1;" vertex="1" parent="46">
                    <mxGeometry x="5" y="40" width="120" height="40" as="geometry"/>
                </mxCell>
            </root>
        </mxGraphModel>
    </diagram>
</mxfile>